<svg xmlns="http://www.w3.org/2000/svg" viewBox="0 0 1280 340" role="img" aria-label="FOREMAN — Production Intelligence with Memory">
  <defs>
    <linearGradient id="bg" x1="0" y1="0" x2="1" y2="1">
      <stop offset="0" stop-color="#0A0E14"/>
      <stop offset="1" stop-color="#0E141C"/>
    </linearGradient>
    <linearGradient id="wm" x1="0" y1="0" x2="0" y2="1">
      <stop offset="0" stop-color="#EAF1F6"/>
      <stop offset="1" stop-color="#9FB3C8"/>
    </linearGradient>
    <radialGradient id="glow" cx="0.82" cy="0.42" r="0.5">
      <stop offset="0" stop-color="#14B8A6" stop-opacity="0.18"/>
      <stop offset="1" stop-color="#14B8A6" stop-opacity="0"/>
    </radialGradient>
    <style>
      .ff { font-family: 'Segoe UI', 'Helvetica Neue', Helvetica, Arial, sans-serif; }
    </style>
  </defs>

  <!-- Hintergrund -->
  <rect width="1280" height="340" fill="url(#bg)"/>
  <rect width="1280" height="340" fill="url(#glow)"/>
  <rect x="0" y="0" width="1280" height="340" fill="none" stroke="#1C2A36" stroke-width="2"/>

  <!-- Drift-/Sensor-Wellenlinie (Motiv: Abweichung über Zeit) -->
  <polyline points="0,300 120,300 180,300 230,296 300,302 360,300 430,300 470,262 510,300 560,300 640,300 700,300 760,300 800,236 840,300 900,300 1280,300"
            fill="none" stroke="#14B8A6" stroke-opacity="0.20" stroke-width="2"/>
  <polyline points="0,318 1280,318" fill="none" stroke="#14B8A6" stroke-opacity="0.08" stroke-width="1"/>

  <!-- Linker Textblock -->
  <text class="ff" x="80" y="96" fill="#2DD4BF" font-size="18" font-weight="600" letter-spacing="5">MSIT AI-TRACK CAPSTONE</text>
  <text class="ff" x="76" y="186" fill="url(#wm)" font-size="96" font-weight="800" letter-spacing="9">FOREMAN</text>
  <rect x="82" y="206" width="116" height="4" rx="2" fill="#2DD4BF"/>
  <text class="ff" x="84" y="252" fill="#8FA3B8" font-size="30" font-weight="500">Production Intelligence with Memory</text>

  <!-- Rechtes Motiv: fünf Reasoner um einen Memory-Core -->
  <g stroke="#2DD4BF" stroke-opacity="0.55" stroke-width="1.6">
    <line x1="1080" y1="150" x2="1080" y2="60"/>
    <line x1="1080" y1="150" x2="1165.6" y2="122.2"/>
    <line x1="1080" y1="150" x2="1132.9" y2="222.8"/>
    <line x1="1080" y1="150" x2="1027.1" y2="222.8"/>
    <line x1="1080" y1="150" x2="994.4" y2="122.2"/>
  </g>
  <g fill="#0E141C" stroke="#2DD4BF" stroke-width="2">
    <circle cx="1080" cy="60" r="7"/>
    <circle cx="1165.6" cy="122.2" r="7"/>
    <circle cx="1132.9" cy="222.8" r="7"/>
    <circle cx="1027.1" cy="222.8" r="7"/>
    <circle cx="994.4" cy="122.2" r="7"/>
  </g>
  <circle cx="1080" cy="150" r="22" fill="none" stroke="#14B8A6" stroke-width="2.5"/>
  <circle cx="1080" cy="150" r="6" fill="#2DD4BF"/>
  <text class="ff" x="1080" y="296" text-anchor="middle" fill="#5B7085" font-size="13" font-weight="600" letter-spacing="3">FIVE REASONERS · ONE MEMORY CORE</text>
</svg>
